<svg xmlns="http://www.w3.org/2000/svg" width="17" height="14" viewBox="0 0 17 14"><g><g><path fill="#757575" d="M16.756 13.116a1.37 1.37 0 0 1-1.907.347L9.215 9.564a1.367 1.367 0 0 1-.59-1.174 4.944 4.944 0 0 1-2.747 1.495 4.948 4.948 0 0 1-3.73-.804A4.95 4.95 0 0 1 .083 5.876a4.953 4.953 0 0 1 .803-3.731A4.992 4.992 0 0 1 7.822.882a4.995 4.995 0 0 1 1.64 6.292 1.37 1.37 0 0 1 1.312.136l5.636 3.899a1.37 1.37 0 0 1 .346 1.907zM8.404 4.36a3.448 3.448 0 0 0-1.44-2.235 3.481 3.481 0 0 0-4.838.878 3.48 3.48 0 0 0 .88 4.837 3.48 3.48 0 0 0 4.837-.88 3.452 3.452 0 0 0 .56-2.6z"/></g></g></svg>