<svg xmlns="http://www.w3.org/2000/svg" width="22" height="19" viewBox="0 0 22 19"><defs><mask id="o40nb" width="2" height="2" x="-1" y="-1"><path fill="#fff" d="M0 0h22v18H0z"/><path d="M21.005 16.847a1.67 1.67 0 0 1-2.324.423l-6.865-4.75a1.665 1.665 0 0 1-.72-1.433A6.025 6.025 0 0 1 7.75 12.91a6.032 6.032 0 0 1-4.545-.979A6.033 6.033 0 0 1 .685 8.024a6.036 6.036 0 0 1 .98-4.547 6.083 6.083 0 0 1 8.452-1.538 6.087 6.087 0 0 1 2 7.667 1.668 1.668 0 0 1 1.599.166l6.867 4.751a1.67 1.67 0 0 1 .422 2.324zM10.827 6.177A4.203 4.203 0 0 0 9.07 3.452a4.243 4.243 0 0 0-5.895 1.07 4.241 4.241 0 0 0 1.073 5.895 4.242 4.242 0 0 0 5.895-1.072c.643-.93.886-2.055.683-3.17z"/></mask><filter id="o40na" width="42" height="39" x="-10" y="-10" filterUnits="userSpaceOnUse"><feOffset dy="1" in="SourceGraphic" result="FeOffset1030Out"/><feGaussianBlur in="FeOffset1030Out" result="FeGaussianBlur1031Out" stdDeviation="0 0"/></filter><filter id="o40nc" width="200%" height="200%" x="-50%" y="-50%"><feGaussianBlur in="SourceGraphic" result="FeGaussianBlur1037Out" stdDeviation="2 2"/></filter><mask id="o40nd"><path fill="#fff" d="M21.005 16.847a1.67 1.67 0 0 1-2.324.423l-6.865-4.75a1.665 1.665 0 0 1-.72-1.433A6.025 6.025 0 0 1 7.75 12.91a6.032 6.032 0 0 1-4.545-.979A6.033 6.033 0 0 1 .685 8.024a6.036 6.036 0 0 1 .98-4.547 6.083 6.083 0 0 1 8.452-1.538 6.087 6.087 0 0 1 2 7.667 1.668 1.668 0 0 1 1.599.166l6.867 4.751a1.67 1.67 0 0 1 .422 2.324zM10.827 6.177A4.203 4.203 0 0 0 9.07 3.452a4.243 4.243 0 0 0-5.895 1.07 4.241 4.241 0 0 0 1.073 5.895 4.242 4.242 0 0 0 5.895-1.072c.643-.93.886-2.055.683-3.17z"/></mask></defs><g><g><g filter="url(#o40na)"><path fill="none" d="M21.005 16.847a1.67 1.67 0 0 1-2.324.423l-6.865-4.75a1.665 1.665 0 0 1-.72-1.433A6.025 6.025 0 0 1 7.75 12.91a6.032 6.032 0 0 1-4.545-.979A6.033 6.033 0 0 1 .685 8.024a6.036 6.036 0 0 1 .98-4.547 6.083 6.083 0 0 1 8.452-1.538 6.087 6.087 0 0 1 2 7.667 1.668 1.668 0 0 1 1.599.166l6.867 4.751a1.67 1.67 0 0 1 .422 2.324zM10.827 6.177A4.203 4.203 0 0 0 9.07 3.452a4.243 4.243 0 0 0-5.895 1.07 4.241 4.241 0 0 0 1.073 5.895 4.242 4.242 0 0 0 5.895-1.072c.643-.93.886-2.055.683-3.17z" mask="url(&quot;#o40nb&quot;)"/><path fill="#fff" fill-opacity=".22" d="M21.005 16.847a1.67 1.67 0 0 1-2.324.423l-6.865-4.75a1.665 1.665 0 0 1-.72-1.433A6.025 6.025 0 0 1 7.75 12.91a6.032 6.032 0 0 1-4.545-.979A6.033 6.033 0 0 1 .685 8.024a6.036 6.036 0 0 1 .98-4.547 6.083 6.083 0 0 1 8.452-1.538 6.087 6.087 0 0 1 2 7.667 1.668 1.668 0 0 1 1.599.166l6.867 4.751a1.67 1.67 0 0 1 .422 2.324zM10.827 6.177A4.203 4.203 0 0 0 9.07 3.452a4.243 4.243 0 0 0-5.895 1.07 4.241 4.241 0 0 0 1.073 5.895 4.242 4.242 0 0 0 5.895-1.072c.643-.93.886-2.055.683-3.17z"/></g><path fill="#fff" d="M21.005 16.847a1.67 1.67 0 0 1-2.324.423l-6.865-4.75a1.665 1.665 0 0 1-.72-1.433A6.025 6.025 0 0 1 7.75 12.91a6.032 6.032 0 0 1-4.545-.979A6.033 6.033 0 0 1 .685 8.024a6.036 6.036 0 0 1 .98-4.547 6.083 6.083 0 0 1 8.452-1.538 6.087 6.087 0 0 1 2 7.667 1.668 1.668 0 0 1 1.599.166l6.867 4.751a1.67 1.67 0 0 1 .422 2.324zM10.827 6.177A4.203 4.203 0 0 0 9.07 3.452a4.243 4.243 0 0 0-5.895 1.07 4.241 4.241 0 0 0 1.073 5.895 4.242 4.242 0 0 0 5.895-1.072c.643-.93.886-2.055.683-3.17z"/><path d="M21.005 16.847a1.67 1.67 0 0 1-2.324.423l-6.865-4.75a1.665 1.665 0 0 1-.72-1.433A6.025 6.025 0 0 1 7.75 12.91a6.032 6.032 0 0 1-4.545-.979A6.033 6.033 0 0 1 .685 8.024a6.036 6.036 0 0 1 .98-4.547 6.083 6.083 0 0 1 8.452-1.538 6.087 6.087 0 0 1 2 7.667 1.668 1.668 0 0 1 1.599.166l6.867 4.751a1.67 1.67 0 0 1 .422 2.324zM10.827 6.177A4.203 4.203 0 0 0 9.07 3.452a4.243 4.243 0 0 0-5.895 1.07 4.241 4.241 0 0 0 1.073 5.895 4.242 4.242 0 0 0 5.895-1.072c.643-.93.886-2.055.683-3.17z"/><path fill-opacity=".23" d="M-4 24V-6h30v30zm25.005-5.153a1.67 1.67 0 0 0-.422-2.324l-6.867-4.751a1.668 1.668 0 0 0-1.599-.166c1.3-2.651.5-5.936-2-7.667a6.083 6.083 0 0 0-8.453 1.538 6.036 6.036 0 0 0-.979 4.547 6.033 6.033 0 0 0 2.52 3.906 6.032 6.032 0 0 0 4.544.98 6.025 6.025 0 0 0 3.348-1.823c-.02.55.233 1.097.719 1.432l6.865 4.751a1.67 1.67 0 0 0 2.324-.423zM10.827 8.177a4.208 4.208 0 0 1-.683 3.17 4.242 4.242 0 0 1-5.895 1.07 4.241 4.241 0 0 1-1.073-5.893 4.243 4.243 0 0 1 5.895-1.071 4.203 4.203 0 0 1 1.756 2.723z" filter="url(#o40nc)" mask="url(&quot;#o40nd&quot;)"/></g></g></svg>